<?xml version="1.0" encoding="utf-8"?><svg xmlns="http://www.w3.org/2000/svg" xmlns:xlink="http://www.w3.org/1999/xlink"><symbol viewBox="0 0 24 24" id="icon-admin" xmlns="http://www.w3.org/2000/svg"><path d="M12 14v2a6 6 0 00-6 6H4a8 8 0 018-8zm0-1c-3.315 0-6-2.685-6-6s2.685-6 6-6 6 2.685 6 6-2.685 6-6 6zm0-2c2.21 0 4-1.79 4-4s-1.79-4-4-4-4 1.79-4 4 1.79 4 4 4zm9 6h1v5h-8v-5h1v-1a3 3 0 016 0v1zm-2 0v-1a1 1 0 00-2 0v1h2z"/></symbol><symbol fill="none" viewBox="0 0 20 20" id="icon-arrow" xmlns="http://www.w3.org/2000/svg"><path d="M10 12.5L6.464 8.964l1.18-1.178L10 10.143l2.357-2.357 1.179 1.178L10 12.5z" fill="#000"/></symbol><symbol fill="none" viewBox="0 0 14 8" id="icon-arrow-drop" xmlns="http://www.w3.org/2000/svg"><path d="M7 2.828l4.95 4.95 1.414-1.414L7 0 .636 6.364 2.05 7.778 7 2.828z" fill="#2D2D2D"/></symbol><symbol viewBox="0 0 24 24" id="icon-box" xmlns="http://www.w3.org/2000/svg"><path d="M3 10H2V4.003C2 3.449 2.455 3 2.992 3h18.016A.99.99 0 0122 4.003V10h-1v10.001a.996.996 0 01-.993.999H3.993A.995.995 0 013 20.001V10zm16 0H5v9h14v-9zM4 5v3h16V5H4zm5 7h6v2H9v-2z"/></symbol><symbol viewBox="0 0 24 24" id="icon-case" xmlns="http://www.w3.org/2000/svg"><path d="M7 5V2a1 1 0 011-1h8a1 1 0 011 1v3h4a1 1 0 011 1v14a1 1 0 01-1 1H3a1 1 0 01-1-1V6a1 1 0 011-1h4zM4 16v3h16v-3H4zm0-2h16V7H4v7zM9 3v2h6V3H9zm2 8h2v2h-2v-2z"/></symbol><symbol fill="none" viewBox="0 0 24 24" id="icon-delete" xmlns="http://www.w3.org/2000/svg"><path d="M17 6h5v2h-2v13a1 1 0 01-1 1H5a1 1 0 01-1-1V8H2V6h5V3a1 1 0 011-1h8a1 1 0 011 1v3zm1 2H6v12h12V8zM9 4v2h6V4H9z" fill="#E33E3E"/></symbol><symbol viewBox="0 0 24 24" id="icon-stat" xmlns="http://www.w3.org/2000/svg"><path d="M3 3h18a1 1 0 011 1v16a1 1 0 01-1 1H3a1 1 0 01-1-1V4a1 1 0 011-1zm1 2v14h16V5H4zm3 8h2v4H7v-4zm4-6h2v10h-2V7zm4 3h2v7h-2v-7z"/></symbol><symbol viewBox="0 0 24 24" id="icon-tg" xmlns="http://www.w3.org/2000/svg"><path d="M12 20a8 8 0 100-16.001A8 8 0 0012 20zm0 2C6.477 22 2 17.523 2 12S6.477 2 12 2s10 4.477 10 10-4.477 10-10 10zm-3.11-8.83l-2.498-.779c-.54-.165-.543-.537.121-.804l9.733-3.76c.565-.23.885.061.702.79l-1.657 7.82c-.116.557-.451.69-.916.433l-2.551-1.888-1.189 1.148c-.122.118-.221.219-.409.244-.187.026-.341-.03-.454-.34l-.87-2.871-.012.008v-.001z"/></symbol><symbol viewBox="0 0 24 24" id="icon-user" xmlns="http://www.w3.org/2000/svg"><path d="M4 22a8 8 0 0116 0h-2a6 6 0 10-12 0H4zm8-9c-3.315 0-6-2.685-6-6s2.685-6 6-6 6 2.685 6 6-2.685 6-6 6zm0-2c2.21 0 4-1.79 4-4s-1.79-4-4-4-4 1.79-4 4 1.79 4 4 4z"/></symbol></svg>