<svg width="27" height="42" fill="none" xmlns="http://www.w3.org/2000/svg"><mask id="path-1-inside-1" fill="#fff"><path d="M0 13.528C0 6.057 6.044 0 13.5 0S27 6.057 27 13.528c0 4.599-4.85 11.318-4.997 11.52l-.008.01c-.149.195-3.823 5.014-4.879 7.483-.893 2.089-1.84 5.693-2.54 8.66-.252 1.066-1.9 1.066-2.152 0-.7-2.967-1.646-6.571-2.54-8.66-1.056-2.469-4.73-7.287-4.88-7.483l-.007-.01C4.85 24.845 0 18.126 0 13.527z"/></mask><path d="M0 13.528C0 6.057 6.044 0 13.5 0S27 6.057 27 13.528c0 4.599-4.85 11.318-4.997 11.52l-.008.01c-.149.195-3.823 5.014-4.879 7.483-.893 2.089-1.84 5.693-2.54 8.66-.252 1.066-1.9 1.066-2.152 0-.7-2.967-1.646-6.571-2.54-8.66-1.056-2.469-4.73-7.287-4.88-7.483l-.007-.01C4.85 24.845 0 18.126 0 13.527z" fill="#698385"/><path d="M17.116 32.541l-.92-.393.92.393zm-7.232 0l-.92.394.92-.394zm-4.88-7.483l.795-.607-.794.607zm-.007-.01l.809-.588-.81.587zm16.998.01l-.794-.607.794.607zm.008-.01l-.809-.588.81.587zM14.576 41.2l.973.23-.973-.23zm-2.152 0l.974-.23-.974.23zM1 13.528C1 6.608 6.598 1 13.5 1v-2C5.49-1-1 5.506-1 13.528h2zM13.5 1C20.402 1 26 6.607 26 13.528h2C28 5.506 21.51-1 13.5-1v2zm2.697 31.148c-.932 2.18-1.896 5.866-2.594 8.823l1.946.46c.703-2.978 1.633-6.499 2.487-8.496l-1.84-.787zm-2.8 8.823c-.697-2.957-1.661-6.643-2.593-8.823l-1.84.786c.855 1.998 1.784 5.52 2.487 8.496l1.947-.46zm7.804-16.52a88.133 88.133 0 00-2.126 2.925c-1.063 1.53-2.304 3.43-2.878 4.772l1.839.786c.482-1.127 1.606-2.87 2.68-4.416a86.271 86.271 0 012.074-2.853l-1.59-1.214zM26 13.528c0 2.027-1.097 4.663-2.324 6.934a39.233 39.233 0 01-2.482 3.998l1.619 1.175a41.155 41.155 0 002.623-4.223C26.672 19.123 28 16.1 28 13.528h-2zm-15.196 18.62c-.574-1.342-1.815-3.243-2.878-4.772a88.348 88.348 0 00-2.127-2.925L4.21 25.665c.07.093 1.017 1.333 2.073 2.853 1.076 1.546 2.2 3.29 2.682 4.416l1.839-.786zM5.806 24.46a39.194 39.194 0 01-2.482-3.998C2.097 18.19 1 15.555 1 13.528h-2c0 2.572 1.328 5.595 2.564 7.884a41.15 41.15 0 002.623 4.223l1.619-1.175zm-.007-.01l-.004-.005.004.006.008.01h-.001l-1.619 1.174a.942.942 0 01.015.02l.007.009.001.001 1.59-1.214zm16.99 1.215l.002-.001a.771.771 0 01.017-.023l.005-.006-1.619-1.175c-.002.002-.001.002 0 .001 0-.002.003-.005.007-.01a.06.06 0 01.004-.005l-.004.005 1.589 1.214zm-9.186 15.306c-.003.012-.005.012-.002.008.003-.005.005-.005.002-.003A.195.195 0 0113.5 41a.194.194 0 01-.102-.024c-.003-.002-.002-.002.001.002.004.005.002.005-.001-.007l-1.947.46c.258 1.09 1.23 1.569 2.05 1.569.819 0 1.79-.479 2.048-1.57l-1.946-.46z" fill="#fff" mask="url(#path-1-inside-1)"/></svg>